/* XPM */
static char * exit_xpm[] = {
"64 64 593 2",
"  	c #6C3D28",
". 	c #5D3523",
"+ 	c #532F1F",
"@ 	c #961900",
"# 	c #F03E00",
"$ 	c #FF7611",
"% 	c #B16341",
"& 	c #B82300",
"* 	c #9A5638",
"= 	c #FCE100",
"- 	c #FCAC00",
"; 	c #FF7E15",
"> 	c #7B452D",
", 	c #8B4E33",
"' 	c #AB603F",
") 	c #47281B",
"! 	c #C63800",
"~ 	c #AA2000",
"{ 	c #B86744",
"] 	c #F96B03",
"^ 	c #FE7E1B",
"/ 	c #827F7D",
"( 	c #8F6252",
"_ 	c #A78B87",
": 	c #A9644A",
"< 	c #A6766A",
"[ 	c #B76949",
"} 	c #9B5F4A",
"| 	c #8D8381",
"1 	c #F39873",
"2 	c #DDB1A7",
"3 	c #E1C5A1",
"4 	c #EF8D6E",
"5 	c #FBAD1C",
"6 	c #D0EF2D",
"7 	c #F2DE4E",
"8 	c #F6702A",
"9 	c #543426",
"0 	c #8B4F35",
"a 	c #704A3C",
"b 	c #7A6B68",
"c 	c #A1BFC6",
"d 	c #ADE1EF",
"e 	c #EFE173",
"f 	c #F9E02E",
"g 	c #FBE11E",
"h 	c #FCE109",
"i 	c #6E4534",
"j 	c #9E9693",
"k 	c #AEB9BD",
"l 	c #B7C2C7",
"m 	c #807A77",
"n 	c #B8301F",
"o 	c #B4888D",
"p 	c #C8E2CE",
"q 	c #C3EAA1",
"r 	c #EF4520",
"s 	c #6E4535",
"t 	c #AB9490",
"u 	c #97A7AE",
"v 	c #71848A",
"w 	c #8097A0",
"x 	c #88B5C1",
"y 	c #A0D1DE",
"z 	c #B4DFEA",
"A 	c #A3E1F1",
"B 	c #B8E2E3",
"C 	c #D5F178",
"D 	c #D6F17F",
"E 	c #D2EF9B",
"F 	c #C8E0E7",
"G 	c #C3E8F2",
"H 	c #C9EBF5",
"I 	c #D0EEF8",
"J 	c #DCF1F8",
"K 	c #DBF6FC",
"L 	c #D0DFE1",
"M 	c #9EACAD",
"N 	c #BD9093",
"O 	c #C7F0F9",
"P 	c #D7E6E8",
"Q 	c #F8E145",
"R 	c #FAE12F",
"S 	c #EE4E32",
"T 	c #6E4E43",
"U 	c #736362",
"V 	c #740B00",
"W 	c #F8AF39",
"X 	c #FD7828",
"Y 	c #ABB9BB",
"Z 	c #CEF5FB",
"` 	c #ABE8F6",
" .	c #AAB8C3",
"..	c #BEEEF8",
"+.	c #ABE2F1",
"@.	c #D4EEF2",
"#.	c #C9E4EC",
"$.	c #D5F0F9",
"%.	c #D5F6FC",
"&.	c #C2D7DE",
"*.	c #857F7E",
"=.	c #837773",
"-.	c #5A5C60",
";.	c #D2BBC0",
">.	c #D5DDDF",
",.	c #FE8022",
"'.	c #FC853B",
").	c #FD8335",
"!.	c #828287",
"~.	c #FBAC0D",
"{.	c #BE8384",
"].	c #D7CDD1",
"^.	c #EAF5F4",
"/.	c #EBF8FB",
"(.	c #E1F4FB",
"_.	c #95D9EA",
":.	c #95D1E5",
"<.	c #B6E0EA",
"[.	c #A6D5E4",
"}.	c #9FD0E1",
"|.	c #E7F6FC",
"1.	c #E5F6F9",
"2.	c #D1E9EF",
"3.	c #BCE8F3",
"4.	c #C3E8F0",
"5.	c #A6A9A9",
"6.	c #DBD8D5",
"7.	c #DFDEE0",
"8.	c #F1CABD",
"9.	c #94B0BB",
"0.	c #947168",
"a.	c #FE7926",
"b.	c #F3CA9D",
"c.	c #EDF4E8",
"d.	c #F2F8FE",
"e.	c #79C1E0",
"f.	c #64A8C6",
"g.	c #90CBDF",
"h.	c #7EBFD8",
"i.	c #71ADC3",
"j.	c #4B9ACD",
"k.	c #86CDE7",
"l.	c #BDE4EE",
"m.	c #B5E3F1",
"n.	c #B4E9F5",
"o.	c #B0DEED",
"p.	c #8CD2EC",
"q.	c #EAF8FB",
"r.	c #A29A9B",
"s.	c #734F42",
"t.	c #E4E3DB",
"u.	c #EEFAF9",
"v.	c #CFEAF2",
"w.	c #A4DBED",
"x.	c #5199C3",
"y.	c #3579AD",
"z.	c #40769A",
"A.	c #6D93A5",
"B.	c #4C809C",
"C.	c #84BFD3",
"D.	c #A2E5F7",
"E.	c #7AC8E7",
"F.	c #75BBD8",
"G.	c #84C6E0",
"H.	c #C5F6FC",
"I.	c #DBFEFE",
"J.	c #7EB6CA",
"K.	c #51505E",
"L.	c #4C3832",
"M.	c #D1F000",
"N.	c #C8C2C3",
"O.	c #F8FAFE",
"P.	c #5091B3",
"Q.	c #236489",
"R.	c #7DA5B6",
"S.	c #2F6FA5",
"T.	c #4A86AB",
"U.	c #619AB3",
"V.	c #2F82B5",
"W.	c #5DA7CD",
"X.	c #6EC4DE",
"Y.	c #9DD7E9",
"Z.	c #C7FDFF",
"`.	c #BCF4FC",
" +	c #5999B8",
".+	c #7891B1",
"++	c #95626F",
"@+	c #A67275",
"#+	c #8F5D4A",
"$+	c #E7E6E7",
"%+	c #FCFDFF",
"&+	c #8AC6D9",
"*+	c #75B6CF",
"=+	c #4B8AB2",
"-+	c #367098",
";+	c #3E667F",
">+	c #0B4173",
",+	c #20619A",
"'+	c #3F7DA6",
")+	c #165392",
"!+	c #1F6AA4",
"~+	c #4C93BC",
"{+	c #2486BE",
"]+	c #3C80B5",
"^+	c #7FB9CD",
"/+	c #B3F0FA",
"(+	c #79B2C7",
"_+	c #B0C4C9",
":+	c #DB9B8A",
"<+	c #E1B77C",
"[+	c #887E7D",
"}+	c #AB6344",
"|+	c #AD6B52",
"1+	c #968985",
"2+	c #2979B7",
"3+	c #175EA5",
"4+	c #57A1C7",
"5+	c #6EC5EC",
"6+	c #5CACD6",
"7+	c #488DC2",
"8+	c #3483C3",
"9+	c #6BB7D8",
"0+	c #97DBF2",
"a+	c #A7EFFB",
"b+	c #C0DCE6",
"c+	c #E6C39A",
"d+	c #EEAC51",
"e+	c #6A4B46",
"f+	c #543123",
"g+	c #B18171",
"h+	c #CEDDE4",
"i+	c #E1F4F7",
"j+	c #1966AE",
"k+	c #6BB0D1",
"l+	c #2685CE",
"m+	c #5FB7DA",
"n+	c #ACDAE8",
"o+	c #3C8FC5",
"p+	c #7DD6EB",
"q+	c #79E0F1",
"r+	c #5FC6E6",
"s+	c #D3E5EA",
"t+	c #B3C9CC",
"u+	c #6E534C",
"v+	c #9F9493",
"w+	c #7F7270",
"x+	c #A4B1B3",
"y+	c #B0C3C5",
"z+	c #CDEAF3",
"A+	c #2271B0",
"B+	c #0B59A5",
"C+	c #8DE1F3",
"D+	c #3B95D7",
"E+	c #50B3D0",
"F+	c #8AD3E1",
"G+	c #8ADBEC",
"H+	c #4CA9DF",
"I+	c #56B9E8",
"J+	c #D5FEFE",
"K+	c #99E5F1",
"L+	c #A1B1B3",
"M+	c #69626A",
"N+	c #B2BCC1",
"O+	c #ACDDE8",
"P+	c #BDE0EA",
"Q+	c #3FA5D0",
"R+	c #0E60AE",
"S+	c #2894D8",
"T+	c #38A9E9",
"U+	c #51A4D4",
"V+	c #5DD7E9",
"W+	c #BFE2E8",
"X+	c #C4D4DA",
"Y+	c #576269",
"Z+	c #52575E",
"`+	c #AAC7CE",
" @	c #6ED4EB",
".@	c #9BEDFB",
"+@	c #5992AE",
"@@	c #69BBE3",
"#@	c #D3DFE4",
"$@	c #482A1F",
"%@	c #9C5755",
"&@	c #D1E8F1",
"*@	c #39BFE5",
"=@	c #4ECBED",
"-@	c #69A1B8",
";@	c #6DA7BE",
">@	c #60A0BD",
",@	c #2072BD",
"'@	c #227BC5",
")@	c #86D7F7",
"!@	c #B9BEBE",
"~@	c #EB9E99",
"{@	c #CEEBF0",
"]@	c #64AECE",
"^@	c #4293CB",
"/@	c #318FCF",
"(@	c #9FA2A4",
"_@	c #C8523F",
":@	c #196BB8",
"<@	c #48B5DF",
"[@	c #88BBCD",
"}@	c #8EC1D3",
"|@	c #95C6D8",
"1@	c #7ECDF1",
"2@	c #B0C0C6",
"3@	c #C54A34",
"4@	c #DFF2F4",
"5@	c #9CCCDB",
"6@	c #538BA5",
"7@	c #A1BECB",
"8@	c #9C7971",
"9@	c #E0A5A5",
"0@	c #CEECF1",
"a@	c #3D8CBA",
"b@	c #BCE2E8",
"c@	c #59AEE0",
"d@	c #A8D0DC",
"e@	c #F4B96F",
"f@	c #A3E0F0",
"g@	c #656162",
"h@	c #FB8042",
"i@	c #C6C3C5",
"j@	c #B4FAFE",
"k@	c #C7E0E4",
"l@	c #8899A3",
"m@	c #75574D",
"n@	c #ABB1B1",
"o@	c #EDF7FE",
"p@	c #7CEBFB",
"q@	c #E0EEF4",
"r@	c #89A4AD",
"s@	c #9E857E",
"t@	c #766763",
"u@	c #BCC4C5",
"v@	c #DAE7ED",
"w@	c #6E4434",
"x@	c #A0857C",
"y@	c #AA7C70",
"z@	c #A28A84",
"A@	c #6D412E",
"B@	c #F6F6F8",
"C@	c #FFFFFF",
"D@	c #A8857E",
"E@	c #92695D",
"F@	c #946F63",
"G@	c #9F7E72",
"H@	c #EDF2F2",
"I@	c #ACD9E1",
"J@	c #B3D3DD",
"K@	c #B3D7DE",
"L@	c #C9E1E9",
"M@	c #926C60",
"N@	c #AB6950",
"O@	c #A28B86",
"P@	c #8E5A46",
"Q@	c #6C3E2A",
"R@	c #736966",
"S@	c #3E88AD",
"T@	c #CEE7F0",
"U@	c #78625B",
"V@	c #6F5147",
"W@	c #8C5E4F",
"X@	c #EF400C",
"Y@	c #A86B6B",
"Z@	c #168ED0",
"`@	c #BFC7CF",
" #	c #994847",
".#	c #ED7D53",
"+#	c #D9C7CB",
"@#	c #BA9DA2",
"##	c #FE7A29",
"$#	c #E7756E",
"%#	c #FC7720",
"&#	c #F77936",
"*#	c #E9C8C7",
"=#	c #4CD9F9",
"-#	c #B4DEE5",
";#	c #C8726A",
">#	c #B69498",
",#	c #C5A5A8",
"'#	c #EF543C",
")#	c #DEA968",
"!#	c #ED7267",
"~#	c #D4E3EC",
"{#	c #E49391",
"]#	c #AE979A",
"^#	c #A8A2AC",
"/#	c #AB8688",
"(#	c #F3AE46",
"_#	c #D5B087",
":#	c #AB4F4B",
"<#	c #BD9392",
"[#	c #C6E7F1",
"}#	c #8BA2AD",
"|#	c #6D4739",
"1#	c #5B6C74",
"2#	c #627E8A",
"3#	c #7E8B90",
"4#	c #88736D",
"5#	c #DAEDF4",
"6#	c #ABD7E4",
"7#	c #90695C",
"8#	c #74686F",
"9#	c #85A0AA",
"0#	c #B8BCBF",
"a#	c #8CAFBE",
"b#	c #AAC1C8",
"c#	c #8F736B",
"d#	c #9A573A",
"e#	c #8DBFD1",
"f#	c #97E1FA",
"g#	c #669BA9",
"h#	c #A3857C",
"i#	c #9A593D",
"j#	c #9A5739",
"k#	c #9EB7C2",
"l#	c #10579C",
"m#	c #B3E5F0",
"n#	c #A5796D",
"o#	c #A7B0B1",
"p#	c #8DECFB",
"q#	c #BECDD3",
"r#	c #B2A19D",
"s#	c #63E1F7",
"t#	c #BCCED4",
"u#	c #BFA7A3",
"v#	c #DBEAF1",
"w#	c #C1AFAD",
"x#	c #41A0DD",
"y#	c #E6F3F5",
"z#	c #533122",
"A#	c #939697",
"B#	c #60BEF3",
"C#	c #625855",
"D#	c #CCE6EE",
"E#	c #319DCB",
"F#	c #C9DBE1",
"G#	c #B69194",
"H#	c #C1DEE4",
"I#	c #BEAFB5",
"J#	c #E5BDB2",
"K#	c #2EA3D9",
"L#	c #E79D9C",
"M#	c #F67C41",
"N#	c #E88869",
"O#	c #E9C8C0",
"P#	c #4BC4E1",
"Q#	c #47B3F1",
"R#	c #32B2DC",
"S#	c #5FCDF2",
"T#	c #F0BAAD",
"U#	c #6C4E47",
"V#	c #90817C",
"W#	c #957B78",
"X#	c #D2E2E8",
"Y#	c #73D2F8",
"Z#	c #DDEBF0",
"`#	c #795B53",
" $	c #99573B",
".$	c #97685A",
"+$	c #8B7573",
"@$	c #8EB9CA",
"#$	c #D0DBDD",
"$$	c #7B4732",
"%$	c #9B5A40",
"&$	c #97685B",
"*$	c #8D8A95",
"=$	c #949198",
"-$	c #3A81B2",
";$	c #999D9F",
">$	c #AB684F",
",$	c #AB6141",
"'$	c #AB6243",
")$	c #9C8689",
"!$	c #7AC6E4",
"~$	c #0D5089",
"{$	c #E5F5F8",
"]$	c #E2EDF0",
"^$	c #AE928B",
"/$	c #6A8390",
"($	c #A9E1EE",
"_$	c #C9E4E8",
":$	c #DCECEE",
"<$	c #D4EFF7",
"[$	c #BAE2EA",
"}$	c #E1E0D8",
"|$	c #DDF3DA",
"1$	c #D6EDED",
"2$	c #F48C6A",
"3$	c #635753",
"4$	c #C2DBDF",
"5$	c #B4CDD5",
"6$	c #ACD3DF",
"7$	c #A9D5E2",
"8$	c #AA8279",
"9$	c #F03F07",
"0$	c #8B8D8F",
"a$	c #847472",
"b$	c #A27A6F",
"c$	c #9B5C42",
"d$	c #A27667",
"e$	c #C4C9CB",
"f$	c #B1CED6",
"g$	c #B8D1D9",
"h$	c #E1FDFE",
"i$	c #B5C2C8",
"j$	c #EFDE66",
"k$	c #C0E6C2",
"l$	c #C5E4E2",
"m$	c #EE5037",
"n$	c #543326",
"o$	c #6D777C",
"p$	c #687276",
"q$	c #5B5D61",
"r$	c #5F6265",
"s$	c #8B5037",
"t$	c #594037",
"u$	c #807877",
"v$	c #B2A5A4",
"w$	c #C0E3EA",
"x$	c #88A3AB",
"y$	c #818486",
"z$	c #9CA3A6",
"A$	c #C9D2D4",
"B$	c #D8EAEF",
"C$	c #ADCED3",
"D$	c #C1D8E1",
"E$	c #D9ECF1",
"F$	c #C6E4E1",
"G$	c #ED6D5F",
"H$	c #6D4536",
"I$	c #6D4C43",
"J$	c #736565",
"K$	c #AA2309",
"L$	c #9D9D9D",
"M$	c #BBE0E8",
"N$	c #4C352D",
"O$	c #961C07",
"P$	c #B82810",
"Q$	c #D8B7BB",
"R$	c #E5F2F5",
"S$	c #B9DAE0",
"T$	c #A5B3B8",
"U$	c #878483",
"V$	c #6A5149",
"W$	c #838F94",
"X$	c #DDBEBF",
"Y$	c #E7CBC1",
"Z$	c #E6CBC1",
"`$	c #E9BDB1",
" %	c #FC8A4C",
".%	c #FF7E1A",
"+%	c #EE4E34",
"@%	c #7B5142",
"#%	c #9A5351",
"$%	c #A8C4CC",
"%%	c #ABC9D1",
"&%	c #A06E6F",
"*%	c #FB8D54",
"=%	c #F3E47C",
"-%	c #ECE698",
";%	c #B1CED5",
">%	c #97A9AE",
",%	c #ADB5B9",
"'%	c #87B9CA",
")%	c #7A969E",
"!%	c #FE8026",
"~%	c #FD8027",
"{%	c #FAAC16",
"]%	c #FF7717",
"^%	c #C63C12",
"/%	c #ED5B49",
"(%	c #603E31",
"_%	c #7E7F7E",
":%	c #6D7A7C",
"<%	c #809FAB",
"[%	c #76969D",
"}%	c #7C8289",
"|%	c #786463",
"1%	c #D1F00F",
"2%	c #6C4130",
"3%	c #5D392A",
"4%	c #5B6F7A",
"5%	c #472C21",
"6%	c #543A31",
"7%	c #54382F",
"8%	c #7B564B",
"9%	c #6B6164",
"0%	c #6C4E49",
"a%	c #742223",
"b%	c #5E4843",
"    . + @ # $ $ $ $ % % % & & * * *   . $ = - - ; + > > > > , , > , , ' ' , * * , > >   + ) ) )     . + @ # $ $ $ $ % % % & & * ",
"@ @ @ @ ! # #   , * , * # # & & . . . $ - - = = = ; > > > , * * , , , * * * , * , , >     ) @ @ @ @ @ @ ! # #   , * , * # # & & ",
"$ & ~ ! ! !   > * * , , * # # & & , , , , , , ; = = ;   , * ' ' ' , , ' { { ' ' , , >   ) ) $ $ $ & ~ ! ! !   > * * , , * # # & ",
"]     . )   > ' ' * * ' '   $ ; * * , , , , , > > ; ; ;   , ' { { ' ' { { { { ,   . + ) ) & - - ]     . )   > ' ' * * ' '   $ ; ",
"  >     . , ' ' ' ' ' ' '   ; * * * * * * , > > > * * ] ; ^ / ( _ : < [ { ' * ,   + ) + & ; = ]   >     . , ' ' ' ' ' ' '   ; * ",
"+   > >   * ' ' ' ' ' '   + , > , * * * * , >   > * } | 1 2 3 4   , , ,     . ) ) ) ) & 5 6 7 8 9   > >   * ' ' ' ' ' '   + , > ",
"  + + ) ) ) , ' ' ' '   + #   > * * * * * 0 ,   . a b c d e f g h i j k l m ) ) ) ) n o p q = r s + + ) ) ) , ' ' ' '   + #   > ",
"      + ) ) ) + + + + + # # +   > , , * t u v w x y z A B C D E F G H I J K L M ) & N O P Q R S T U   + ) ) ) + + + + + # # +   ",
"# >   . + + ) ) V V V # W X $ ~ .     Y O Z `  ...A +.G @.#.H G H I I $.%.$.&.*.=.-.;.O >.,.'.).# !.  . + + ) ) V V V # - $ $ ~ ",
";   , >   > + + ! # # - ~.- $ $ ~ {.].^./.(.K H ` _.:.<.[.}.:.G (.(.|.J $.1.J (.(.2.H 3.4.5.6.7.8.9.0.>   > + + ! # # - - - $ $ ",
"! ;   , , > . ) - - - - - - a.b.c.d.|.|.|.J H 3._.e.f.g.h.i.j.k.+.Z Z ` +.H <.l.m.n.o.k.p.3.J J q.3.+.r.0 > . ) - - - - - - $ - ",
"! ; ;   + ) ) @ - -       s.t.u.q.(.$.I v.l.l.3.w.x.y.y.z.A.B.C.h.p.D._.E._.F.:.H n.n.G G.g.3.H.I.n.e.J.K.L.) @ - -         - = ",
"# = M.M.; ~ ~ ; - , , > > N.O./.J v.G m.G m.O $.:.P.Q.B.B.A.R.z.S.T.U.P.f.j.V.W.X.X.F.g.[.}.Y.$.Z.`.k. +.+++@+; - , , > >     = ",
"# = M.M.= ; ; - #+* , , , $+%+/.$.l.[.G.:._.&+*+=+-+;+>+;+z.A.=+,+,+'+,+)+S.!+~+{+y.,+]+^+g.Y.` /+`.n.i.(+_+:+<+, * , , ,   > > ",
"# - - = % - - - [+* }+|+1+O.O.1.G Y.h.F.E.j.2+3+Q.Q.-+B.T.(+4+4+5+6+W.y.y. +'+]+7+]+S.S.8+9+w.0+D.a+..3.[.b+c+d+e+* ' '   > , * ",
"@ # # ]       f+[+g+h+$.i+1.J m.:.6+8+j+k+l+8+m+w.+._._.n+Y.G %.%.+.0+6+F.*+x.o+p+q+6+o+r+j.G.D.D.`.`.a+0+w.s+t+u+' ' , > , * ' ",
"@ # ] , , v+w+x+y+z+3.n...m.[.F.j.A+S.B+W.5+C+h.D+r++...C+_.E.E.E+G.:.o.F+G+e.j.4+H+I+9+X.9+8+e.a+`.J+`...K+[.b+L+M+    , * * { ",
"! $ ~ , , N+O+P+3.3.n.+.A :.p.Q+j+R+8+S+0+p+T+H+w.+.X.E+W.x.~+=+=+ +x.U+_.V+p.` r+o+4+k+~+T.=+j+m+q+/+H./+` Y.W+X+Y+Z+) ' { { { ",
"# $ ~ . . `+n.3.n.I 3.G+A  @p+Q+Q+e.w.n..@G+3.o.9+Q+~+T.T.=+P.+@+@+@P.x.e.@@r+_./+K+6+x.f.y.+@S.]+I+.@/+/+q+0+O #@+ $@) * { { { ",
"$ $ $ ~ %@&@I 1.@.i+G A /+n.K+q+5+5+*@=@=@G+0+k+4+P.=+P.+@U.-@-@;@;@>@>@U+G.U+e._.K+n.I+@@x.'+2+,@'@)@`./+ @)@n.!@  + ) + * { { ",
", , > $ ~@(.q.i+i+{@m.O @.F.r+ @S+l+D+H+)@e.j.o+x.P.U.-@;@i.(+^+^+^+(+*+F.G.]@4+F._.p+3.C+^@i.8+^@/@H+q+H. @p+` (@    ) ) + . . ",
"' * , > _@d.d.$.J H A O [.>@y.y.y.:@:.n.<@k+j.x.U+f.;@(+^+[@}@|@|@|@g.g.:.G.F.]@9+<.@@1@H.Y.P.-@x./@/@I+a+ @1@..2@  + ) ) ) + + ",
"' ' , > 3@4@1.$.|.O n.w.i.~+~+=+y.D+n.I+9+-@~+]@X.@@h.C.|@5@}.[.[.[.o.w.:.:.G.F.G.}.6+U+Y.%.o+6@-+'+o+T+/+C+I+A 7@8@. + + , , , ",
"' ' > ~ 9@H 0@J (...D.G+^@o+a@'+y.e.k.o+=+ +f.]@E.1@:.}.[.n+<.b@l.G m.o.w.Y.Y.G.[.e.F.]@c@$.m+U.-+y.A+/@K+A E.Y.d@  . ) , , , , ",
"' > ~ - e@G H J I Y.)@I+,@{+x.'+U+A D+]+P. +>@*+1@A Y.n+<.G H I I I H 3.o.w.n+Y.n+G.F.W.6+n._.y.B.S.!+2+p+F+3.0@f@g@) ) > , , , ",
", ~ $ = h@i@I J H 0+G+Q+S+{+T.i.w.e.>@]+ +;@i.h.0+0+o.l.H $.J (.(.J $.I G l.m.w.<.g.F.]@6+j@.@y.6@z.y.S.p+G+G 1.k@l@m@* ' ' ' ' ",
"! $ $ $ ~ n@J |.3._.p+<@<@j.;@E.p.f.P.=+P.-@(+G.A +.l.H J 1.|.o@o@|.(.J I H 3.o.m.n+h.*+]@K+p@&+6@+@+@P.m+K+H.q@m r@s@' ' ' ' ' ",
"# $ # . t@u@O.d...a+I+l+=+R.e.H [.~+'+P.>@i.C.:.+.m.H J |.d.d.O.O.d.o@|.J $.H l.m.b@g.*+f.k.p@` |@(++@+@o+1@O v@w@x@y@' ' ' ' ' ",
"# #   , z@A@B@K ` D.r+=+B.z.e.d.n+a@T. +;@(+&+Y.n.G $.|.d.O.%+C@%+%+O.d.|.J I H G l.}.C.i.W.K+Z |@,+,+B.^@G++.(.a * D@' ' ' ' ' ",
"# # , E@F@G@H@$.D.0+I+;@z.,+@@i+9+y.T.>@k+h.p.A n.O (.o@O.C@C@C@C@C@%+O.o@(.$.$.@.l.I@5@J@K@3.`._.7+A.+@4+p.m.L@+   M@* N@' ' ' ",
"& & # O@P@Q@R@I _.D.X. ++@S.5+0@k+S@=+W.E.p.p.+...$.|.d.%+C@C@C@C@C@C@%+d.(.J @.G o.n+K@|@k+k.C+A *+6@ +j.A w.T@+   U@V@W@* ' { ",
"& # # X@~ ~ Y@(.n.D.r+o+=+{+w.m.}.]+>@c@p.p.0++...$.|.d.%+C@C@C@C@C@C@%+d.q.i+v.l.n+5@&+C.^+]@<@C+j.8+9+Z@G+A `@@ ~ ~  #    , , ",
". & & .## # +#$.D..@ @c@A+e.6+G j.(+~+5+k.g.}.o.G $.|.d.%+C@C@C@C@C@C@%+d.|.J H <.[.5@C.i.>@7+Q+D.6+E.@@5+a+0+@## $ ##$#! ~ , , ",
". ) & %#&## *#O K+a+=#<@/@p.^@A x.>@U+E.e.&+}.o.G $.|.d.%+C@C@C@C@C@C@O.o@(.$.G -#}.|@(+-@ + +U+E.@@p.l+j.q+..;#~ >#,#'## ! ~ . ",
". ) ) $ )#- !#~#Y.3.C+=@r+@@k+k./@k+G.9+*+}@}.n+l.I (.o@O.%+C@C@C@C@O.d.|.J I l.n+5@}@i.U.+@;@G.1@A ^@7+2+I+..{#]#^#/#~ ! ! @ @ ",
"* > ) $ (#_#:#<#[#g.r+S+E.l+Q+ @T+G.6+]@*+C.g.[.m.H $.|.o@d.O.%+%+O.d.o@(.$.G <.[.|@[@;@-@+@i.w.G+e.T.'+V.e.n.$.F }#|#  ~ ~ ~ & ",
"* > . . 1#2#3#4#5#A p+/@P. +f.G+q+5+F.^+G.G.p.Y.o.3.I J |.o@d.d.d.o@/.(.$.H <.n+5@}@^+-@+@-@ +Y.n.:@A.,+a@k.G.e.6#7#, , > >   ~ ",
"> , > . > 8#9#0#Z ` _.F.+@A.]+E.j@p+j.4+k+e.p.0+A m.G I J (.|.|.|.1.J $.H l.n+}.|@^+;@-@-@'+k++.w.j+B.a#4+6+6+m+b#c#* * * * * , ",
", * * , * d#e#k.Y.` X.E.U.)+A+m+/+C+j.4+f.F.E.G+f#A m.G I $.J J J $.I G <.n+}.|@[@i.-@-@g#'+k+@.m.y.-+U.7+6+j.w.h#i#* * ' ' ' ' ",
", , , * * j#k#k.k.k.0+1@(+z.l#D+` p@1@j.4+k+e.1@f#f#+.n.3.G H H H H l.<.n+}.|@[@(+-@+@6@z.'+&+I _.R.S.S.V.Y.m+m#n#* * ' ' ' ' ' ",
"'   . , , , o#3.@@m+X.p.W.U.A.=+G.p#p#X.W.]@9+E.C+f#` D.` m.m.l.l.<.o.[.5@}@[@(+-@+@6@z.T.x.:.+.h.y.]+a@k.A k.q#* * ' ' ' ' ' ' ",
"  . . > * * r#$.E.k.X.X.W.'+A.3+j.p.s#C+U+W.]@F.p.0+)@A ` D.A n+n+w.Y.5@}@;@;@-@+@6@B.z.S@F.` Y.P.!+,@U+K+0+3.t#> * ' ' ' ' ' ' ",
". .   , * * u#/.3.0+C+E.6+]+A+,++@H+C+/+6+4+f.k+F.k.G.k.p.D.0+:.:.p.k.C.(+;@U.6@6@B.z.y.j.Y.p.x.B.3+'@p+a+O I v#  > * ' ' ' ' * ",
". . . . , * w#|.J m.` D.E.x#'@y.>@7+:...U+>@>@f.F.h.F.^+h.E.0+E.E.5+5+k+;@U.+@6@z.z.'+^@F+6+:.z.B.3+S+5+Z O $.y#z#+ +   > > > > ",
"> > >   + + A#i+J G K+f#K+<@j.,@j+'+'@n.w.j.4+>@;@6+f.;@i.k+e.E.5+B#E.U+ +T.B.z.-+y.U+3.e.:@Y.)+-+8+I+C+/+O I #@) ) ) +     & @ ",
", > > > > + C#D#{@H A K+C+q+@@/@y. +>@I+O p+H+j.x.f.x. + + +>@6+e.E.B#@@k+]+]+S.8+I+G :.]+j+[@S.S.E#0+D.n.H I F#~ ~ # # # & > , ",
", , , , > ) V G#H#o.+./+a+/+ @D+o+j+6@~+I+0+p.I+x#j.x. +=+=+=+~+7+^@k+/@D+@@U+D+@@3.p.P.6@{+(+!+8+c@f#n.3.G v.I## $ - - - @ , * ",
", , , > + V ~ # J#n+_.O /+/+C+x#S+8+j++@4+m+T+_.0+1@k.K#H+U+o+]+'+=+7+f.'@S+5+_.+.0+W.3+2+E.T+'@m+....<.<.<.G L#; ; = = - @ * * ",
"    . + @ # M#N#$ O#<._.` /+a+P#<@l+D+9+o+*+k+k+e.` n.G+I+*@Q#R#Q+/@S+I+Y.k.F.I+h.2+3+3+H+r+X.S#`.H H l.o.m.$.T#$ $ % % % & & * ",
"@ @ @ @ ! # # U#V#W#X#n+m.H.H.r+r+H+D+e.p.^@F.U+c@X.E._.E.q+C+C+Y#q+1@E.x#U+F.x.B.)+l#:@ @q+K+/+H.A w.w.A Z Z#`#, * , * # # & & ",
"$ & ~ ! ! !   >  $.$+$@$g.A Z /+` e.E.U+m+U+6+p+m+x.x.m+6+U+Q+^@E+I+x.=+a#R.z.,+,+{+A+j.p+`.C+K++.+.n...K 1.#$$$%$* , , * # # & ",
"]     . )   > ' ' &$*$=$-$m+_.%.%.Z A 6+x#m+^@6+ @l+8+2+x.l#-+,+)+ +6@+@z.R.,+T.Q+R#E#R#C+n.D.n.%.|.$.G I G ;$>$' * * ' '   $ ; ",
"  >     . , ' ' ' ' ,$'$)$!$C+..%.Z ..m+5+m+@@Q+C+I+r+<@U+2+T.~$~$-+B.z.B.z.V.r+q+V+S#C+n.Z |.{$]$O.G m.+.3.^$' ' ' ' ' '   ; * ",
"+   > >   * ' ' ' ' ' '   /$($_$:$<$[$/+n.+.p.q+` D.C+` ` p+U+V.S.S.P.,+!+A+a@j.m+k._.3.}$|$1$2$3$4$5$m.6$7$8$' ' ' ' '   + , > ",
"  + + ) ) ) , ' ' ' '   + 9$0$a$b$c$d$e$I O f$g$..H.Z |.h$%.A U+A+A+V.^@a@W.x.x.F.G.}.i$j$k$l$m$  n$o$p$q$r$s$' ' ' '   + #   > ",
"      + ) ) ) + + + + + # # t$u$> , , v$K w$x$y$z$A$B$%.1.(.I C+m+m+m+F.h.C.J@-#C$D$G E$<.o.F$G$H$I$J$+ ) ) ) + + + + + # # +   ",
"# >   . + + ) ) V V V # - $ $ K$.     L$Z M$N$O$P$Q$R$O n.` D.` D.p.h.F.h.S$T$U$V$W$X$Y$Z$`$ %.%+%@%  . + + ) ) V V V # - $ $ ~ ",
";   , >   > + + ! # # - - - $ $ ~ ~ #%$%%%&%! # # # *%=%-%;%>%,%I +.:.C.'%)%> >   . . > , , ; !%~%  , >   > + + ! # # - - - $ $ ",
"! ;   , , > . ) - - - - - - $ - = {%]%^%/%$ $ # # ; - =   , > (%_%:%<%[%}%|%> > > > > > , , , & ! ;   , , > . ) - - - - - - $ - ",
"! ; ;   + ) ) @ - -         - = 1%f = $ $ + + + ) ) @ # + > > 2%3%4%5%6%    , , * * * * > , , > ! ; ;   + ) ) @ - -         - = ",
"# = M.M.; ~ ~ ; - , , > >     = = = ) ) + + . . . + ) @ V ) 7%8%9%0%) ) +     , , * * * * * , > # = M.M.; ~ ~ ; - , , > >     = ",
"# = M.M.= ; ; - , * , , ,   > > >   . . + .       . . V @ @ a%b%> > . ) ) + . .   * ' ' ' ' > + # = M.M.= ; ; - , * , , ,   > > ",
"# - - = % - - -   * ' '   > , * * ' ' > + +           . V @ @ @ @ + + . .       . . , ' ' > . + # - - = % - - -   * ' '   > , * ",
"@ # # ]       +   ' ' , > , * ' ' ' ' > +   , , , >   > > . & & & @ + .   , > > + ) . . . . ) ) @ # # ]       +   ' ' , > , * ' "};
