/* XPM */
static char * floor_xpm[] = {
"64 64 22 1",
" 	c #6C3D28",
".	c #5D3523",
"+	c #532F1F",
"@	c #961900",
"#	c #F03E00",
"$	c #FF7611",
"%	c #B16341",
"&	c #B82300",
"*	c #9A5638",
"=	c #FCE100",
"-	c #FCAC00",
";	c #FF7E15",
">	c #7B452D",
",	c #8B4E33",
"'	c #AB603F",
")	c #47281B",
"!	c #C63800",
"~	c #AA2000",
"{	c #B86744",
"]	c #F96B03",
"^	c #D1F000",
"/	c #740B00",
"  .+@#$$$$%%%&&*** .$=--;+>>>>,,>,,'',**,>> +)))  .+@#$$$$%%%&&*",
"@@@@!## ,*,*##&&...$--===;>>>,**,,,***,*,,>  )@@@@@@!## ,*,*##&&",
"$&~!!! >**,,*##&&,,,,,,;==; ,*''',,'{{'',,> ))$$$&~!!! >**,,*##&",
"]  .) >''**'' $;**,,,,,>>;;; ,'{{''{{{{, .+))&--]  .) >''**'' $;",
" >  .,''''''' ;******,>>>**];; ,'''{{'*, +)+&;=] >  .,''''''' ;*",
"+ >> *'''''' +,>,****,> >**>;;-] ,,,  .))))&-^=]+ >> *'''''' +,>",
" ++))),'''' +# >*****,, .  .-====  +++))))&&=^=# ++))),'''' +# >",
"   +)))+++++##+ >,,**,..))&#=^^^ .)))))))&&#;==#   +)))+++++##+ ",
"#> .++))///#-$$~.   .))@&##-=^^>,,>)))...)#;;;;;#> .++))///#-$$~",
"; ,> >++!##---$$~~@//@!###;==  >,,>)+ >> ..>,,;;; ,> >++!##---$$",
"!; ,,>.)------$-=-$!#$$##;-= ,>.++)+ >>>>>>>,,,&!; ,,>.)------$-",
"!;; +))@--    -=^==$$+++))@#+>> .))+  ,,****>,,>!;; +))@--    -=",
"#=^^;~~;-,,>>  ===))++...+)@/)+>  ))+  ,,*****,>#=^^;~~;-,,>>  =",
"#=^^=;;-,*,,, >>> ..+.   ../@@/.>>.))+.. *''''>+#=^^=;;-,*,,, >>",
"#--=%--- *'' >,**''>++     ./@@@@++..   ..,''>.+#--=%--- *'' >,*",
"@##]   + '',>,*''''>+ ,,,> >>.&&&@+. ,>>+)....))@##]   + '',>,*'",
"@#],,, +)   ,**{{''+,''',, >>)).##&@.>,,+))..@@@@#],,, +)   ,**{",
"!$~,,,+)))))'{{{',.+>'''' ..+***,###@@++))@@@@@!!$~,,,+)))))'{{{",
"#$~..+)@++))*{{{{+))++   ))>*****,,##@@@@@@@@!!!#$~..+)@++))*{{{",
"$$$~@@@@  +)+*{{.))++++)))) ,*****,!#$-$#@@!!!!#$$$~@@@@  +)+*{{",
",,>$#!]>   ))+..))...   ..  ,*{{{*~!$--=^=-$#!]*,,>$#!]>   ))+..",
"'*,>!]*** +)))++)+. >,, .    .~]]~!$$-=^^^=-$]'''*,>!]*** +)))++",
"'',>!>****.++,,,,. >,,,.) >,,..~###$-==^^^=='''''',>!>****.++,,,",
"''>~#! ** .),,,,,,.  .+)).>>>@@@~~>>>>-=^^='{{''''>~#! ** .),,,,",
"'>~--#!  +))>,,,,>...)@!@))!!~@>**,,,,,----'{{{{'>~--#!  +))>,,,",
",~$=$~>>,> *'''''*,..@$--;#!&**''''*,,*,$-$,'{{',~$=$~>>,> *''''",
"!$$$~+..  *'''''''**,,~$;-;!**''''''****>$$&,,,,!$$$~+..  *'''''",
"#$#...+) *''''''''***>,,#;!,*'''''''**''>#$#&@@!#$#...+) *''''''",
"## ,, .+ *'''''''*,,>.,,,~~,**'''''*'{{'>!#!&&&### ,, .+ *''''''",
"##,,,,.++ ,*'''''''>..>>.~~>,**'''''{{{>!!!&&&&&##,,,,.++ ,*''''",
"&&#,, +++   ,*'{{'>.,,..@~~.>,''{{{{{*>&!!>>>>&&&&#,, +++   ,*'{",
"&###~~@@@~~@  ,,>.,,,,,.~!!@.>,*'{{'*>#;!,,,,,>.&###~~@@@~~@  ,,",
".&&$##~~#$$#!~,,.,'''', !;!~@ >>>>  ~#$;,,,,,,,>.&&$##~~#$$#!~,,",
".)&$$##!~~!##!~. '{{{' ~;;>>   >>  ~!$$],,,,,,,>.)&$$##!~~!##!~.",
".))$--##~~~~!!@@&,{{{,~&;,,,>  '',>!$$$] **,,,,>.))$--##~~~~!!@@",
"*>)$--~~    ~~~&##]]]#&@.,,>.>'''',#$--$] ***,>**>)$--~~    ~~~&",
"*>..))) ,,,,>> ~##=^^=&~+... ''''*~$---$$&&..+>**>..))) ,,,,>> ~",
">,>.>>.>,,*****,,$=^^=;$~+). '''*@!$->>>**&&&&+.>,>.>>.>,,*****,",
",**,**>,****''''',$====;$~~)+ ,,@~$->>>>>>*&&.,,,**,**>,****''''",
",,,***,****'''''''>$==$   &&~~@@~!~  >>>>>>)>,,,,,,***,****'''''",
"' .,,,,,**''''''''>$$$  >>> $--$!@       .)+*'{{' .,,,,,**''''''",
" ..>**, >*'''''''*>$$  >>**>>>$!@  ,,,  +)). **, ..>**, >*''''''",
".. ,***, >*''''*>>#;$  ,,****,)@@ ,,,,,+>,,>)  ... ,***, >*''''*",
"....,**,+++ >>>>&###;+ ,*****,)))) ,,,)>,,, )+))....,**,+++ >>>>",
">>> ++)))))+  &@,,,##&+.,***,+)+++))))) '*>)))) >>> ++)))))+  &@",
",>>>>+))~~###&>,,,,,#&&++...++......+)))))))))>,,>>>>+))~~###&>,",
",,,,>)/~#$---@,**,,>##&)))+..... >>,,,,> +))).>,,,,,>)/~#$---@,*",
",,,>+/~#;;==-@****, #$#])+ >>> >>>,'',,,,>.+)).,,,,>+/~#;;==-@**",
"  .+@#$$$$%%%&&*** .$=--;+>>>>,,>,,'',**,>> +)))  .+@#$$$$%%%&&*",
"@@@@!## ,*,*##&&...$--===;>>>,**,,,***,*,,>  )@@@@@@!## ,*,*##&&",
"$&~!!! >**,,*##&&,,,,,,;==; ,*''',,'{{'',,> ))$$$&~!!! >**,,*##&",
"]  .) >''**'' $;**,,,,,>>;;; ,'{{''{{{{, .+))&--]  .) >''**'' $;",
" >  .,''''''' ;******,>>>**];; ,'''{{'*, +)+&;=] >  .,''''''' ;*",
"+ >> *'''''' +,>,****,> >**>;;-] ,,,  .))))&-^=]+ >> *'''''' +,>",
" ++))),'''' +# >*****,, .  .-====  +++))))&&=^=# ++))),'''' +# >",
"   +)))+++++##+ >,,**,..))&#=^^^ .)))))))&&#;==#   +)))+++++##+ ",
"#> .++))///#-$$~.   .))@&##-=^^>,,>)))...)#;;;;;#> .++))///#-$$~",
"; ,> >++!##---$$~~@//@!###;==  >,,>)+ >> ..>,,;;; ,> >++!##---$$",
"!; ,,>.)------$-=-$!#$$##;-= ,>.++)+ >>>>>>>,,,&!; ,,>.)------$-",
"!;; +))@--    -=^==$$+++))@#+>> .))+  ,,****>,,>!;; +))@--    -=",
"#=^^;~~;-,,>>  ===))++...+)@/)+>  ))+  ,,*****,>#=^^;~~;-,,>>  =",
"#=^^=;;-,*,,, >>> ..+.   ../@@/.>>.))+.. *''''>+#=^^=;;-,*,,, >>",
"#--=%--- *'' >,**''>++     ./@@@@++..   ..,''>.+#--=%--- *'' >,*",
"@##]   + '',>,*''''>+ ,,,> >>.&&&@+. ,>>+)....))@##]   + '',>,*'"};
