/* XPM */
static char * death_xpm[] = {
"64 64 279 2",
"  	c #6C3D28",
". 	c #5D3523",
"+ 	c #532F1F",
"@ 	c #961900",
"# 	c #F03E00",
"$ 	c #FF7611",
"% 	c #B16341",
"& 	c #B82300",
"* 	c #9A5638",
"= 	c #FCE100",
"- 	c #FCAC00",
"; 	c #FF7E15",
"> 	c #7B452D",
", 	c #8B4E33",
"' 	c #AB603F",
") 	c #47281B",
"! 	c #C63800",
"~ 	c #AA2000",
"{ 	c #B86744",
"] 	c #F96B03",
"^ 	c #C0988D",
"/ 	c #E2E2E2",
"( 	c #D4D4D4",
"_ 	c #C9C9C9",
": 	c #C5C5C5",
"< 	c #D9D9D9",
"[ 	c #CCC7C5",
"} 	c #B6806F",
"| 	c #B9B9B9",
"1 	c #4A4A4A",
"2 	c #2D2D2D",
"3 	c #282828",
"4 	c #373737",
"5 	c #2F2F2F",
"6 	c #272727",
"7 	c #414141",
"8 	c #C0C0C0",
"9 	c #CBCBCB",
"0 	c #464646",
"a 	c #9A9A9A",
"b 	c #DDDDDD",
"c 	c #F5F5F5",
"d 	c #FEFEFE",
"e 	c #FCFCFC",
"f 	c #ECECEC",
"g 	c #B2B2B2",
"h 	c #3C3C3C",
"i 	c #868686",
"j 	c #D1F000",
"k 	c #8E8E8E",
"l 	c #1C1C1C",
"m 	c #838383",
"n 	c #E8E8E8",
"o 	c #FFFFFF",
"p 	c #FDFDFD",
"q 	c #DADADA",
"r 	c #5B5B5B",
"s 	c #797979",
"t 	c #1E1E1E",
"u 	c #B8B8B8",
"v 	c #E1E1E1",
"w 	c #606060",
"x 	c #B5B5B5",
"y 	c #740B00",
"z 	c #888888",
"A 	c #D0D0D0",
"B 	c #C1C1C1",
"C 	c #F8B59E",
"D 	c #C6C6C6",
"E 	c #171717",
"F 	c #B4B4B4",
"G 	c #F3F3F3",
"H 	c #848484",
"I 	c #BCBCBC",
"J 	c #696969",
"K 	c #F4F4F4",
"L 	c #B7B7B7",
"M 	c #7E7E7E",
"N 	c #D2D2D2",
"O 	c #191919",
"P 	c #D8D8D8",
"Q 	c #CDCDCD",
"R 	c #A0A0A0",
"S 	c #EBEBEB",
"T 	c #E7E7E7",
"U 	c #474747",
"V 	c #3A3A3A",
"W 	c #B6B6B6",
"X 	c #646464",
"Y 	c #787878",
"Z 	c #545454",
"` 	c #D5D5D5",
" .	c #0B0B0B",
"..	c #ADADAD",
"+.	c #FBFBFB",
"@.	c #161616",
"#.	c #1A1A1A",
"$.	c #717171",
"%.	c #DFDFDF",
"&.	c #AAA29F",
"*.	c #383838",
"=.	c #AEAEAE",
"-.	c #535353",
";.	c #070707",
">.	c #010101",
",.	c #9F9F9F",
"'.	c #B3B3B3",
").	c #131313",
"!.	c #1F1F1F",
"~.	c #929292",
"{.	c #BDBDBD",
"].	c #DBDBDB",
"^.	c #EDEDED",
"/.	c #1B1B1B",
"(.	c #020202",
"_.	c #0F0F0F",
":.	c #525252",
"<.	c #B0B0B0",
"[.	c #919191",
"}.	c #E3E3E3",
"|.	c #F7F7F7",
"1.	c #393939",
"2.	c #202020",
"3.	c #F2F2F2",
"4.	c #F8F8F8",
"5.	c #DCDCDC",
"6.	c #E9E9E9",
"7.	c #7A7A7A",
"8.	c #424242",
"9.	c #EAEAEA",
"0.	c #F6F6F6",
"a.	c #C2C2C2",
"b.	c #6A6A6A",
"c.	c #A9A9A9",
"d.	c #F9F9F9",
"e.	c #4B4B4B",
"f.	c #404040",
"g.	c #808080",
"h.	c #DEDEDE",
"i.	c #FAFAFA",
"j.	c #5E5E5E",
"k.	c #898989",
"l.	c #505050",
"m.	c #A5A5A5",
"n.	c #212121",
"o.	c #060606",
"p.	c #040404",
"q.	c #0C0C0C",
"r.	c #D7D7D7",
"s.	c #CCCCCC",
"t.	c #575757",
"u.	c #676767",
"v.	c #6F6F6F",
"w.	c #050505",
"x.	c #CECECE",
"y.	c #7E6B65",
"z.	c #484848",
"A.	c #8C8C8C",
"B.	c #141414",
"C.	c #292929",
"D.	c #454545",
"E.	c #3B3B3B",
"F.	c #4F4F4F",
"G.	c #E3E2E2",
"H.	c #353535",
"I.	c #E6E6E6",
"J.	c #6D6D6D",
"K.	c #4D4D4D",
"L.	c #2C2C2C",
"M.	c #4E4E4E",
"N.	c #CC6C5F",
"O.	c #616161",
"P.	c #A7A7A7",
"Q.	c #C9ABA3",
"R.	c #BBB5B4",
"S.	c #515151",
"T.	c #969696",
"U.	c #D8CAC7",
"V.	c #989898",
"W.	c #5F5F5F",
"X.	c #CFCFCF",
"Y.	c #595959",
"Z.	c #E5E5E5",
"`.	c #D4C9C6",
" +	c #F1F1F1",
".+	c #979797",
"++	c #030303",
"@+	c #242424",
"#+	c #949494",
"$+	c #434343",
"%+	c #303030",
"&+	c #A6A6A6",
"*+	c #313131",
"=+	c #262626",
"-+	c #C7C7C7",
";+	c #8A8A8A",
">+	c #585858",
",+	c #636363",
"'+	c #626262",
")+	c #747474",
"!+	c #F0F0F0",
"~+	c #D6D6D6",
"{+	c #EFEFEF",
"]+	c #6B6B6B",
"^+	c #BFBFBF",
"/+	c #D1D1D1",
"(+	c #333333",
"_+	c #080808",
":+	c #777777",
"<+	c #3F3F3F",
"[+	c #E4E4E4",
"}+	c #9C9C9C",
"|+	c #EDC7C4",
"1+	c #7F7F7F",
"2+	c #858585",
"3+	c #878787",
"4+	c #939393",
"5+	c #909090",
"6+	c #B1B1B1",
"7+	c #999999",
"8+	c #121212",
"9+	c #BBBBBB",
"0+	c #5C5C5C",
"a+	c #828282",
"b+	c #BF8683",
"c+	c #000000",
"d+	c #8F8F8F",
"e+	c #0D0D0D",
"f+	c #AFA3A0",
"g+	c #555555",
"h+	c #090909",
"i+	c #7C7C7C",
"j+	c #C4C4C4",
"k+	c #343434",
"l+	c #363636",
"m+	c #6E6E6E",
"n+	c #757575",
"o+	c #EEEEEE",
"p+	c #666666",
"q+	c #9E9E9E",
"r+	c #181818",
"s+	c #2A2A2A",
"t+	c #2E2E2E",
"u+	c #6C6C6C",
"v+	c #8B8B8B",
"w+	c #D1BCB6",
"x+	c #656565",
"y+	c #A4A4A4",
"z+	c #2B2B2B",
"A+	c #AAAAAA",
"B+	c #232323",
"C+	c #C3C3C3",
"D+	c #7D7D7D",
"E+	c #EBD5D4",
"F+	c #686868",
"G+	c #494949",
"H+	c #3E3E3E",
"I+	c #323232",
"J+	c #796864",
"K+	c #959595",
"L+	c #ABABAB",
"M+	c #A1A1A1",
"N+	c #4C4C4C",
"O+	c #737373",
"P+	c #3D3D3D",
"Q+	c #727272",
"R+	c #0A0A0A",
"S+	c #A97A6C",
"T+	c #AFAFAF",
"U+	c #1D1D1D",
"V+	c #BABABA",
"W+	c #101010",
"X+	c #A3A3A3",
"Y+	c #ACACAC",
"Z+	c #DCD4D4",
"`+	c #8D8D8D",
" @	c #BEBEBE",
".@	c #C2B7B5",
"+@	c #767676",
"    . + @ # $ $ $ $ % % % & & * * *   . $ = - - ; + > > > > , , > , , ' ' , * * , > >   + ) ) )     . + @ # $ $ $ $ % % % & & * ",
"@ @ @ @ ! # #   , * , * # # & & . . . $ - - = = = ; > > > , * * , , , * * * , * , , >     ) @ @ @ @ @ @ ! # #   , * , * # # & & ",
"$ & ~ ! ! !   > * * , , * # # & & , , , , , , ; = = ;   , * ' ' ' , , ' { { ' ' , , >   ) ) $ $ $ & ~ ! ! !   > * * , , * # # & ",
"]     . )   > ' ' * * ' '   $ ; * * , , , , , > > ; ; ;   , ' { { ' ^ / ( _ : < [ . + ) ) & - - ]     . )   > ' ' * * ' '   $ ; ",
"  >     . , ' ' ' ' ' ' '   ; * * * * * * , > > > * * ] ; ;   , } | 1 2 3 4 5 6 7 8 ) + & ; = ]   >     . , ' ' ' ' ' ' '   ; * ",
"+   > >   * ' ' ' ' ' '   + , > , * * * * , >   > * * > ; ; - 9 0 3 a b c d e f g h i & - j = ] +   > >   * ' ' ' ' ' '   + , > ",
"  + + ) ) ) , ' ' ' '   + #   > * * * * * , ,   .     . - = k l m n d o o o o o p q r i = j = #   + + ) ) ) , ' ' ' '   + #   > ",
"      + ) ) ) + + + + + # # +   > , , * * , . . ) ) & # = s t u d o o o o o o o o o v w x = = #       + ) ) ) + + + + + # # +   ",
"# >   . + + ) ) y y y # - $ $ ~ .       . ) ) @ & # # - z t A o o o o o o o o o o o d B w C ; ; # >   . + + ) ) y y y # - $ $ ~ ",
";   , >   > + + ! # # - - - $ $ ~ ~ @ y y @ ! # # # ; D E F o o o o o o o o o o o o o G H I ; ; ;   , >   > + + ! # # - - - $ $ ",
"! ;   , , > . ) - - - - - - $ - = - $ ! # $ $ # # ; - 1 J d d o o o o o o o o o o o c K L M , & ! ;   , , > . ) - - - - - - $ - ",
"! ; ;   + ) ) @ - -         - = j = = $ $ + + + ) ) N O P o o o o o o o d Q R S o T U V W X , > ! ; ;   + ) ) @ - -         - = ",
"# = j j ; ~ ~ ; - , , > >     = = = ) ) + + . . . + Y Z p d o o o o o o ` t  ...+.u @.#.L $.%.> # = j j ; ~ ~ ; - , , > >     = ",
"# = j j = ; ; - , * , , ,   > > >   . . + .       &.*.=.o o o o o o d e -.;.>.,.+.'.).!.9 ~.{.+ # = j j = ; ; - , * , , ,   > > ",
"# - - = % - - -   * ' '   > , * * ' ' > + +       T 3 ].o o o o o o o ^./.(._.B d ` 3 :.^.<.[.+ # - - = % - - -   * ' '   > , * ",
"@ # # ]       +   ' ' , > , * ' ' ' ' > +   , , , }.5 |.o o o o o o o |.1.2.s 3.o 4.5.6.e u 7.) @ # # ]       +   ' ' , > , * ' ",
"@ # ] , , ,   + )       , * * { { ' ' + , ' ' ' , Q 8.p o o o o o o o d 9.T 0.e p p p d o a.b.@ @ # ] , , ,   + )       , * * { ",
"! $ ~ , , , + ) ) ) ) ) ' { { { ' , . + > ' ' ' ' c.U o d o o o o o o d o o d.9 e.f.g.h.i.a.j.! ! $ ~ , , , + ) ) ) ) ) ' { { { ",
"# $ ~ . . + ) @ + + ) ) * { { { { + ) ) + +       k.l.o o o o o o o o o o d.m.n.o.p.q.4 r.s.t.! # $ ~ . . + ) @ + + ) ) * { { { ",
"$ $ $ ~ @ @ @ @     + ) + * { { . ) ) + + + + ) ) u.v.o o o o o o o o o o }.3 w.>.>.>.q.i x.t.# $ $ $ ~ @ @ @ @     + ) + * { { ",
", , > $ # ! ] >       ) ) + . . ) ) . . .       y.z.A.o o o d o o o o o o Q B.q.C.D.E.*.F x.F.* , , > $ # ! ] >       ) ) + . . ",
"' * , > ! ] * * *   + ) ) ) + + ) + .   > , ,   G.H.B o o o d o o d o d o I.J.~.q 6.n S c x.K.' ' * , > ! ] * * *   + ) ) ) + + ",
"' ' , > ! > * * * * . + + , , , , .   > , , , . %.L.T d o o o o o o o o o p 0.i.d o o o o x.M.} ' ' , > ! > * * * * . + + , , , ",
"' ' > ~ # !   * *   . ) , , , , , , .     . + ) B z.+.o o o o o o o o o o o o o o o d o o x.K.' ' ' > ~ # !   * *   . ) , , , , ",
"' > ~ - - # !     + ) ) > , , , , > . . . ) @ N.O.P.o o o o o o o o o o o o o d o o o o o x.K.{ ' > ~ - - # !     + ) ) > , , , ",
", ~ $ = $ ~ > > , h.B g x x.Q.' ' * , . . @ $ x.V I.o o o o o o o o o o d o o o o o o o o x.K.' , ~ $ = $ ~ > > , >   * ' ' ' ' ",
"! $ $ $ ~ + . R.,.7 S.i T.t.X _ U.' * * , , %.Z V.e o o o o o o o o d o o o o o o o o o o x.M., ! $ $ $ ~ + . .     * ' ' ' ' ' ",
"# $ # . . . + W.*.X.|.o o 0.P b.Y.8 Z.`.Z.X.K.X  +o o o o o o o o o o o o o o o o o o o o x.:.! # $ # . &.n + )   * ' ' ' ' ' ' ",
"# #   , ,   .+++@+i n d.d o o d.h.#+$+1.%+%+&+G o o o o o o o o o o o o o o d i.|.+.d o d x.Y.# # #   x V *+A.+   * ' ' ' ' ' ' ",
"# # , , , , $+(.>.(.=+=.K o o d o p n s.Q T p o o o o o o o o o o o d o o o i.-+;+|  +p o x.>+& # # i n.,+c.'+L +   , * ' ' ' ' ",
"& & # , ,   !.>.>.>.>.q.)+!+d o o o o o o o o o o o d o o o o o o o o o o o 0.~+..4 v.{+d : Z & & [.4 s.d o 0.m +       , * ' { ",
"& # # # ~ ~ 3 (.>.>.>.(.p.]+{+d o o o o o o o o o o o o o o o o o o o o o o o d o %.t.H |.^+-.. /+(+5.d o o p ~.@ ~ ~ @     , , ",
". & & $ # # D.(.>.>.>.>.>._+:+!+p o o o o o o o o o o o o o o o o o o d o o o o o o A <+L 8 b.[+K.8 o o d +.e }+|+$ $ # ! ~ , , ",
". ) & $ $ # 1+>.>.>.>.>.>.>._+2+c o o o o o o o o o o o o o o o o o o o o o o o o o d.3+H.4+r M 5+e o d }.$.6+7+v ~ ! # # ! ~ . ",
". ) ) $ - - N _+(.>.>.(.>.>.(.8+9+p o o o o o o o o o o o o o o o o o o o o o o o o d Z.K. .E 0+K o o G K.| p a+b+~ ~ ~ ! ! @ @ ",
"* > ) $ - - ~ J.p.>.>.c+>.>.>.(.h / o d o d o o o o o o o o o o o o o o o o o o o o o d S ~.d+3.d o 4.7+e+: d O.        ~ ~ ~ & ",
"* > . . ) ) ) f+g+h+>.>.>.;.h O e+&+e o o o o o o o o o o o o o o o o o o o o o o o o d d +.+.d o e v )+i+$.{.u., , , , > >   ~ ",
"> , > . > > . > , j+!.++>.k+v h.Z l+_ e o o o o o o o o o o o o o o o o ~+S p o o o o o o o o o o G m+v > ^+n+Z., , * * * * * , ",
", * * , * * > , * * ]+;.>.a+c e o+)+=+1+6+6+<.#+z X p+q+( +.o o o o o o Z.W.n o o o o o o o o o d._ L , * * > , * * * * ' ' ' ' ",
", , , * * * , * * * q+ .>.L +.o d 9.S.q.B.r+8+B.!.s+t+#.E ;++.o o o o o +.;+3+!+o o o o o o o p n b., * * * , * * * * ' ' ' ' ' ",
"'   . , , , , , * * 5.r+(.s.p o o +.k _.u+].].b v T 6.x O _.,.d o o o o o 9.<+a 3.o o o o o d S u+[+. , , , , , * * ' ' ' ' ' ' ",
"  . . > * * ,   > * ' ~.q.Q d o o i.)+3 P d o o o o d 0.T.++t+i.o o o o o e 9 %+v+!+o o o d T J x.. . > * * ,   > * ' ' ' ' ' ' ",
". .   , * * * ,   > * w+h X.p o o 0.O.O.G o o o o o o d 6.e+o.h.d o o o o o 4.q+=+,+A f !+5.x+%+&+.   , * * * ,   > * ' ' ' ' * ",
". . . . , * * , + + +   m y+|.o o !+:.i+p o o o o o o o c z+++I d o o o o o o G A+*+B+V e.F.P.}+z+C+. . , * * , + + +   > > > > ",
"> > >   + + ) ) ) ) ) + : l.^.o o !+:.M p o o o o o o o |.l.(.z e o o o o o o o |.A 2+u+d+A c ^.D+2 3+A [++ ) ) ) ) ) +     & @ ",
", > > > > + ) ) ~ ~ # # E+*.N e o d.]+F+c o o o o o o o i.7.(.G+d.o o o o o o o o d 4.c i.d o d {+}+H+I+<+J+) ) ~ ~ # # # & > , ",
", , , , > ) y ~ # $ - - - H n+ +o p m.7 h.o o o o d o o +.&+>.).T d o o o o o o o o o o o o o o o d./ A+u.) y ~ # $ - - - @ , * ",
", , , > + y ~ # ; ; = = - [+8.8 4.o I.:.z 0.o o o o o o p N ++>.K+i.o d o o o o o d d o o o d o o d G A.s.y ~ # ; ; = = - @ * * ",
"    . + @ # $ $ $ $ % % % & L+$+_ 4.+.L h C+e o o o o o o K O >.5 }.p o o o p {+j+c.W h.c d o o o c M+M+@ # $ $ $ $ % % % & & * ",
"@ @ @ @ ! # #   , * , * # # & K+0 a.{+G z $+5.e o o o o o i.N+(.++M.X.3.p d.%.J B.o.e+L.K+v 4.p K ^+O+@ ! # #   , * , * # # & & ",
"$ & ~ ! ! !   > * * , , * # # & ~.h s.o 5.%+P+`  ++.o o o e ;+++>.(./.Q+D W 5 h+>.>.>.>.R+(+P.Q ~.e.Z.! ! !   > * * , , * # # & ",
"]     . )   > ' ' * * ' '   $ ; X B +.o !+x+h+s+$./+e o o d }.@+h+(.>.>.w.p.(.>.>.>.>.(.>.>.p.R+B+r.  . )   > ' ' * * ' '   $ ; ",
"  >     . , ' ' ' ' ' ' '   ; S+F+b +.o 3.J.B+_ ( T+3.o o o d q u+U+w.>.>.>.>.>.>.>.>.>.>.>.(.B.V+>     . , ' ' ' ' ' ' '   ; * ",
"+   > >   * ' ' ' ' ' '   + , > 8 '+[++.f M.'++.o o o o o o o o d [+l (.>.>.(.>.>.>.>.>.(.w.W+p++   > >   * ' ' ' ' ' '   + , > ",
"  + + ) ) ) , ' ' ' '   + #   > * D O.~+q I+.+o o o o o o o o o o Z.#.(.>.>.>.>.>.>.>.w.8+K.X+#   + + ) ) ) , ' ' ' '   + #   > ",
"      + ) ) ) + + + + + # # +   > , x.x+'+L.D d o o o o o o o o |.J R+_+_+++>.>.>.(.p.1.s.= = #       + ) ) ) + + + + + # # +   ",
"# >   . + + ) ) y y y # - $ $ ~ .       d+s+7+c p o o o o o o p k.R+7 Y+q+*+;.(.>.++5 Q ; ; ; ; # >   . + + ) ) y y y # - $ $ ~ ",
";   , >   > + + ! # # - - - $ $ ~ ~ @ y y Z+`+l. @d d d o o o C+h+1 .@) +   i @+R+z.s.> , , ; ; ;   , >   > + + ! # # - - - $ $ ",
"! ;   , , > . ) - - - - - - $ - = - $ ! # $ $ T u.u.^+i.o o p K.s+[+) +   > > > .@> > > , , , & ! ;   , , > . ) - - - - - - $ - ",
"! ; ;   + ) ) @ - -         - = j = = $ $ + + + ) ( Q+M.+@^+b B. @) ) +     , , * * * * > , , > ! ; ;   + ) ) @ - -         - = ",
"# = j j ; ~ ~ ; - , , > >     = = = ) ) + + . . . + ) @ ` :+(+7+    ) ) +     , , * * * * * , > # = j j ; ~ ~ ; - , , > >     = ",
"# = j j = ; ; - , * , , ,   > > >   . . + .       . . y @ @ y . > > . ) ) + . .   * ' ' ' ' > + # = j j = ; ; - , * , , ,   > > ",
"# - - = % - - -   * ' '   > , * * ' ' > + +           . y @ @ @ @ + + . .       . . , ' ' > . + # - - = % - - -   * ' '   > , * ",
"@ # # ]       +   ' ' , > , * ' ' ' ' > +   , , , >   > > . & & & @ + .   , > > + ) . . . . ) ) @ # # ]       +   ' ' , > , * ' "};
