/* XPM */
static char *c28f0667391f4ca1a415ed099410dc90hVmlh6LTSdWmBddV[] = {
/* columns rows colors chars-per-pixel */
"64 64 172 2 ",
"   c #26130C",
".  c #2B160D",
"X  c #2E180F",
"o  c #321A0F",
"O  c #2C1710",
"+  c #2E1911",
"@  c #341C13",
"#  c #391F14",
"$  c #371F18",
"%  c #372016",
"&  c #3C2116",
"*  c #36211A",
"=  c #3C231A",
"-  c #3E281F",
";  c #3F2620",
":  c #3F2825",
">  c #412316",
",  c #43261A",
"<  c #482719",
"1  c #44291D",
"2  c #4B2B1D",
"3  c #512E1E",
"4  c #54301F",
"5  c #402620",
"6  c #452B22",
"7  c #4B2D22",
"8  c #512F21",
"9  c #4E3125",
"0  c #4E332A",
"q  c #543224",
"w  c #5A3525",
"e  c #5E3827",
"r  c #543529",
"t  c #593729",
"y  c #56382D",
"u  c #5C3A2C",
"i  c #543931",
"p  c #5C3C31",
"a  c #623726",
"s  c #623926",
"d  c #633D2C",
"f  c #693F2B",
"g  c #623F31",
"h  c #66402E",
"j  c #6B412E",
"k  c #71442E",
"l  c #7A472F",
"z  c #654132",
"x  c #6C4433",
"c  c #6E4836",
"v  c #654439",
"b  c #6B4739",
"n  c #6D4939",
"m  c #724633",
"M  c #7A4731",
"N  c #744935",
"B  c #7B4B35",
"V  c #744B3A",
"C  c #7B4E3A",
"Z  c #7E5037",
"A  c #77503E",
"S  c #7D513C",
"D  c #775241",
"F  c #7D5441",
"G  c #824F36",
"H  c #814F39",
"J  c #835037",
"K  c #83533D",
"L  c #89563E",
"P  c #87583C",
"I  c #8C593E",
"U  c #94593C",
"Y  c #845641",
"T  c #895740",
"R  c #855943",
"E  c #8C5B43",
"W  c #825848",
"Q  c #8E5F49",
"!  c #925E44",
"~  c #935E45",
"^  c #915E46",
"/  c #915E44",
"(  c #925D44",
")  c #985F42",
"_  c #915E48",
"`  c #925F48",
"'  c #8E6148",
"]  c #936247",
"[  c #966145",
"{  c #956046",
"}  c #946046",
"|  c #966046",
" . c #966146",
".. c #966147",
"X. c #976246",
"o. c #956146",
"O. c #986145",
"+. c #996347",
"@. c #9A6246",
"#. c #936048",
"$. c #966148",
"%. c #94614B",
"&. c #96644B",
"*. c #96664A",
"=. c #93654C",
"-. c #94634A",
";. c #996349",
":. c #986549",
">. c #9B6448",
",. c #996649",
"<. c #9A654A",
"1. c #9E6749",
"2. c #9C664A",
"3. c #9D664A",
"4. c #9B664C",
"5. c #9D674D",
"6. c #9B654A",
"7. c #9F684B",
"8. c #9E694D",
"9. c #9E694E",
"0. c #9E684C",
"q. c #986750",
"w. c #9E6C52",
"e. c #A16544",
"r. c #A66D4A",
"t. c #A06A4C",
"y. c #A0694E",
"u. c #A16B4E",
"i. c #A26B4F",
"p. c #A56B4D",
"a. c #A36C4F",
"s. c #A56C4D",
"d. c #A56C4F",
"f. c #A66F4F",
"g. c #A36B4D",
"h. c #A96E4E",
"j. c #AB714E",
"k. c #B0714D",
"l. c #A16E53",
"z. c #A76F50",
"x. c #A46E51",
"c. c #A86F55",
"v. c #A96E50",
"b. c #A77053",
"n. c #AB7151",
"m. c #AB7152",
"M. c #AA7253",
"N. c #AD7250",
"B. c #AC7252",
"V. c #A97354",
"C. c #AE7355",
"Z. c #AA7456",
"A. c #AE7656",
"S. c #AC7253",
"D. c #A47158",
"F. c #A67158",
"G. c #AA7258",
"H. c #AF795A",
"J. c #B17655",
"K. c #B27956",
"L. c #B47E5E",
"P. c #B57B5A",
"I. c #BB7F5E",
"U. c #B97E5A",
"Y. c #BB815D",
"T. c #BD8665",
"R. c #BB8262",
"E. c #C6845E",
"W. c #C28765",
"Q. c #C28762",
"!. c #C38965",
"~. c #CC936C",
/* pixels */
"& d x x z d 7 c.#.x x P f = @ d x j d d q 1 1 1 1 7 7 7 q u u N / >.f.S.A.f.>.P u w M.,.N | E f Z P E P B J O./ K h q u x c u 1 ",
"> q q 2 8 , N $.w w z N x d 7 > # @ @ @ @ # % & # @ @ @ % % & , < 2 w d j K C c = K M.y.B f.5.C | | | >.( / E C C m d d q q 2 = ",
"d x w w q & J f u C K B m x d 7 K E K m j m j / / P Z m j m Z B j w , # @ @ % @ q m.f.y.C m.u.Z 4.>.,.u.y.,.Z C C N C f q 2 @ & ",
"T.L.] y.&.w L m K E E P C C x q U r.>.T J ( J E / | 8.z.p.I.W.M.V.Z.8.,.c 5 q 2 f O.>.>.x p.7.P f.| ,.u.E K S S C m m q F.` C x.",
"&.E S E u q E P / | L K E P V 2 l ( L d C E P P T P P E / E E K K Y E E y q ( N , s E S w M j j E | 5./ C N N C N N f C $.x Y =.",
"z u u u 7 d ( E / L Z / E T N q U B d c C P E E E / ,.$.E C K T K K E Y 6 m y.C u , q 1 , , % , < d K R P C m j x N d T x x g z ",
"d f z d 2 M ( P P B E / T L d j E.Q N / I E ( | | O.$.E E T B E E P >.Y 5 I f.E V q > q P / P C q , , d C C c z j u j V x x x z ",
"N x x f 7 k Z K P E | E P C 7 M J.| E ( | / ( O.O.O.$.Q ,.L E 8.,./ 7.b 7 p.8.,.Q V m y.J.S.7.x.P w q = , 2 7 u d , m C N N N m ",
"K C B N q < & 1 w j N C K m w p.E N P | >.,.O.>.7.,.E ,.x.u.z.x.8.,.8.y d S.z.f.8.| E 7.P.z.8.,.E w 2 , d x x f w d N G L E P P ",
"K E P C q B f 2 # @ @ , q w d U.,.K E >.y.8.>.O.z.z./ y.x.M.x.x.z.5.c - q B f.A.f.,.V.| S.y.y.,.$.N % j | S Z N f / ] K B P / / ",
"K K P c q O.T / m m N w 2 & 3 2 d K y.y.y.f.f.y.E N $.8.8.c.V.x.R y * = 2 2 f Q ,.b.A.,.>.>.5.$.| E q J S C C d P Q T T P B k d ",
"m m B d e K j x F 8.,./ E P h , @ > d E ,.,.] V r = w S R 4.R p = 1 u C N w , < d C >.z.u.>.$.$.| / w N R C x C Q K P K C Z d d ",
"K Z m 7 f N f W R m x m V K T S x 2 & & 2 7 1 1 7 q 2 , q u : - h K / ,.f.$.c q , < d Z E ] E $./ / t d K N x K C K P C S m d K ",
"Z K N 2 j f N T N C Z C B N C V V x d u 2 q z x c c z q = % h | y.>.>.f.M.y.z.w.C q , < 7 u N T E C 6 8 d 7 q f m N C S C f j C ",
"x q = = e j L C C S K K C C V V c v d c x f x x z z g z 0 k h.O.L / p.M.M.| y.J.A.8.P e , > 1 t w % @ > # @ & & , 2 q t w 7 m N ",
"= 7 c P f f H C S K K K N c V V c V x v c j c c v v v z r ) p.>.,.y.y.h.m.M.S.J.J.m.Y.R.&.x q , @ q j P Z K N j d , # @ . , e 2 ",
"K L P Z E d 3 C K C C V N V c V V N N N S C V c c v c y N k.f.z.v.M.h.p.S.S.p.S.P.A.K.Y.U.I.&.2 ] L.m f.f.M.f.K.P.f.,.E m 2 2 u ",
"Z N m N N S w 4 C C V V V N c c V N N K Y S V c c V v r e.j.p.z.M.m.p.S.J.| y.Y.P.P.P.U.S.h.S w j.I w J J L L J K E / p.h j | K ",
"V C N N N N V 8 4 u f c x x x v z z k S V c b b v u 5 q k L ,.f.J.m.M.R.u.K f.U.U.P.P.J.f.p.V 2 K E q j B P E E P K E ( , j C m ",
"C V c c N x N z , 2 2 w x x x x z x m z g u u y 9 1 m c < 3 B ( O./ P E S N >.Y.P.P.h.>.,.p.V 1 G K 7 % = q d m P ( >.P & f C V ",
"V N z z z x w 7 q 2 u 8 q z x z h d u y y r r 9 1 N P S c 7 , u m f x x w B P.Y.K.7.O.f.M.h.z 1 s 1 + u N q = @ & w j h & k C V ",
"V v x d d d x C S x 3 d 9 8 d d e u t y y 9 6 1 d L K T T V w < u x E Z C J.S.j.y.z.A.J.m.f.y , & , ' ~.L.f.x.Q x 2 & o @ B N N ",
"x f f x N K K m h x x q j q q w u d u 7 1 = 1 , e K 4.x.x.,.T u , 2 e q B @.y.M.M.K.K.A.P.K - < P Q.Y.>.( I O.y.M.>.>.K 3 k m x ",
"d d N C B N m x x f x z q x q w u 7 1 1 q x N z , 2 E b.M.G.Y V d q u q l f.P.I.L.p.M.P.,.7 1 z.P.p.} ( | ( J L L P E / 7 f N h ",
"c V N N m m N x x h d z y q w 7 1 7 g V C N c c y % 2 K %.R v c r , = 2 j Z E ] >.O.O.m.x % N >.K / O./ / / T T L P P N = e j z ",
"f f x x x N N m x f u q 7 1 # , w V V N m N V V v q & q z y 9 1 1 m B j q q w t d m S f = 7 / B K C J P E / T P P P B N 1 s B x ",
"f h d f x N N N f u f u t q j B V x N B C C S S S z 6 & = % @ , m L E E C u q 1 = 1 , = % C R C T P K B M B K P K C B P 1 B B d ",
"d j x x m B H x d N x g t u B x v x N S K T E T C z y = % 1 1 q B E E P P S V 7 f d q w 1 Z S S S P P P T N B C K N J Z , f w u ",
"< w f m B H x w N x g d 9 f z u x V m T T E W S F V g 7 q d 7 q H E / E E T v 7 / K m w 7 B N C C C C C B m Z C K N L x @ + X # ",
"X @ , q d q 7 m c N c t 2 j y u h C x P #.F D R R S v 0 e x 0 q K E / / Q E r 7 m u q % j K C K K K K S C N B C C B P u % , @ + ",
"7 < , , , = q f x N x 9 d d u g x N V V W F R R R C z r j S p q B I E E E c = 2 % @ @ & w d m C K K K K K B C K K C K r 1 w q q ",
"s j G x 2 < 2 , 7 t r 9 x p g z x c b r V W R R F c y d R $.V 7 d C S K V 6 q Q C C K T d , % 2 u x x z d q u j m m N 7 < w 2 2 ",
"P | I u t u w q 2 1 6 < q p z v v v V g u D Y V c v r C R V y = # = q r 7 1 T S Y Q Q Q E S z 8 , , , , , , , % % , 1 = q q % d ",
"p.O.y 9 t u u d u q 1 & 8 u g z v c c n w h V v u 5 1 u 6 % % m x 9 % @ @ f R V S Q E R T K T S d 2 w f x N d q 2 = & , q % 3 / ",
"5.u 6 r u u r q q q u w & 7 y p g v v V p # % 1 u V R V T p 1 x S F z Z S d V V m C R R S C S m z z 7 f x j d d d u w q 2 X N K.",
"7 7 9 r y r r 9 9 7 q 7 % & = 9 y g z 9 = x ] H.R.P.F.l.w.v 1 j V c u N V w V Y R S N S V V S x S V 7 w x x g g u y y r = @ M j ",
"7 q u u r r r 9 9 1 = % f z 1 @ 1 - + = E Q.L.x.$.$.q.=.Q i 1 x V c y x c r V F R ' Q Z N Y C m S N t 2 d v z u u u t 1 . , j 7 ",
"q u d y u r r 7 7 % < P c 9 u 9 @ q K H.A.E T E Q #.=.4.F 0 1 x c c r N V y V K R R Q Q Q &.#.P E S z 7 N c x d u q 1 +   3 d q ",
"r d r r y r 9 7 6 7 d f r r r r q p.5.Z S T E E S c x x g i 1 d c v 9 z c 7 c S K T R R K T Y K R S b 2 e z d w 1 % O @ w 8 & 1 ",
"@ = 7 r r 9 r r q q q q r r r 1 w K N m N P R E R R S z y y = w u u 6 , 1 = q x S Y R R R R K E R S V = & 7 7 1 @   , P O.N 2 . ",
".   . = 1 u p r r q q t q r r % f K C K N B K K K E R T b p - , d c r , 7 u 1 2 x Y K Y E R E E E F v 7 % # % @   u M.7.B m d @ ",
"q q , .   1 z z u r q r r t 9 < G C C B B N B V N m N x c b 6 > w g 0 7 t q 7 1 2 c Y Y T R R T V w 6 r 9 # . . x P./ B B B f 1 ",
"8 d j w , . , z z u r r r 9 % & d B x x B K P P P K Z V V c 9 @ % 7 6 2 x V V z 2 2 N T Y K C u 6 9 u g u % # B p.P m j B B m q ",
", w w e w %   , p p y r 7 % e w @ & q d x m C C C N N v d g 5 2 2 % @ & w z g y 7 = 2 u c v r y v V x q % . q O.B m x m N M N u ",
"2 q w 8 , , q # 1 y r 7 , j j q 8 # @ = , 7 w u d z z u y 6 @ m N v d 7 @ 2 r r 1 1 % O + @ 7 h x r @     . 8 M B C N x x M N q ",
"7 2 q , @ B | q o 7 7 1 q q 7 q e t % . . . @ = 6 9 q 7 5 @ s J d c N c r @ = = q x r = , % @ # =   @ w f w 2 M H B B N m N d 1 ",
"1 > , @ s B j x 7 @ % e N d e e w 3 , B x q , @ @ = - % 1 d K C h V V S W 6 & h V z 6 7 x y q , @ q P ( J j = a B B N N B N 2 1 ",
"% % @ 7 N f f N x = , e j N j j d < k L P T N 9 % @ # e N C C c c V D Q / p 1 N c v 6 1 u h x r , L O.K B j 1 < k B B m f w 2 = ",
"w 1 & N m j M L C 9 > 2 w q d w 1 q H N B N B m 9 # < 2 8 d x g u c T E | D - u c g 6 @ @ @ % + 3 a f N N M w & j B m m j j d t ",
"7 & m j M G / I B 1 2 > > q u 7 > M B B B C d 7 9 6 , & # # = 1 d E E / ( ` r < c g % q x u q = M J N B J J N , e M m k N N N j ",
"@ f t.N ( 8.P H h 1 y u 7 2 w , e K C C m q 6 x c - s C m x d e L / ( | | >.V % 7 6 % d C K c 7 j L L J G B B 7 2 M m d j B B e ",
"j J.( j P B K >.d 7 g v u 2 7 = w d w 2 , d K J d = q m m B Z x P / ( ( ( O.Q 6 @ @ 2 N C H d q 2 N N j d e d 7 & d d 9 q N d % ",
"J / x u m K ) / 7 9 u u z u 1 @ & , 7 d B L K J x - w B m C P x P / / ( | >.Q i = q m E I x K P w 2 3 2 8 d d , , 2 e d 2 8 1 1 ",
"d d m j x J B 7 1 z b c c V z 7 , d B J K J L J x - e B N K E C C / / | Q V g 9 1 d B K B N P / E m d j P C x 6 w # & w w , # w ",
"< 4 j m N N < % z V V D F D g y 1 @ & < 2 q j N x 5 w N N K L P j E E m r 6 5 = @ 2 j C E K j K B C L C m x f 7 8 , , # @ + @ > ",
"# X @ 2 q @ @ V W D F F R v y 7 7 d 7 % @ # # 8 u = w N C E E ( q u q = $ @ @ 2 w , u C E / C m N B N x x h h 7 > C x @ # 2 7 , ",
"N w & o . . C W F Y Y F g 9 r 6 u C c v u 2 & @ % % 8 q N Z K N 1 @ + X & j K y.R , 3 m L E E N N B N m x x N 9 2 P r % d c V V ",
"z c z % o N F F F F c u y y y 7 x c V S A c z d 2 = @ # , 1 1 @ + @ 8 d / f.P K K r , f K I L c x m m x N N x 7 , w % 8 j V v u ",
"c f 7 @ x Q x z z u u v c z y q C A F F F R S Q S x w 1 & % % = = w I / L C B N E v 1 q f j w 1 q f x x x d u 1 % w R R S h z N ",
"f u = % Z F z z p g z z g p 7 c Y A A F Q =.Y E Y F S h x x c d 1 d L P K B C N I Y ; & > , q f 8 q u u u u u % f R.=.y b u C S ",
"9 6 @ # 2 q v n b b b z g r 7 q q d Y ' =.Y V S V z u r u x c d 1 j P K K C C m } Y % B P d q e q 2 3 q u u 9 % N R p y u u v v ",
"9 - . # > o @ 7 z b b c v y 7 # & c S V v x c v y r y r r p g u 1 k I / L K B N f.z 2 } V c w d 2 e d < q t 1 6 K E p y z c V V ",
"- % w P K f 7 o & y v r = 2 w = w z z c V Z Y z z v c V u u z z 9 k ( O.@.p.y.M.E % d K d K f C P k q 2 , @ @ w Z S p b V A V r ",
"% e S N c c r q j > @ . , q % = h x N V S C c d x v N C u w z v d I f.P.!.!.P.y.c % B L x E x q f x x C P N d w , & p v c c z 6 "
};
